<svg xmlns="http://www.w3.org/2000/svg" xmlns:svg="http://www.w3.org/2000/svg" id="svg8" width="105.546" height="23.095" version="1.1" viewBox="0 0 27.926 6.111"><metadata id="metadata5"/><g id="layer1" transform="translate(-12.438455,-21.535559)"><path id="circle920" fill="#fc0" fill-opacity="1" stroke="none" stroke-dasharray="none" stroke-miterlimit="4" stroke-opacity="1" stroke-width="1.309" d="m 15.05636,21.535559 a 2.6176721,2.6176721 0 0 0 -2.617905,2.617891 2.6176721,2.6176721 0 0 0 0.304231,1.220574 c 0.402772,-0.859375 1.277002,-1.45312 2.313674,-1.45312 1.036805,0 1.910942,0.593974 2.313656,1.453526 a 2.6176721,2.6176721 0 0 0 0.303821,-1.22098 2.6176721,2.6176721 0 0 0 -2.617477,-2.617891 z"/><flowRoot id="flowRoot935" fill="#000" fill-opacity="1" stroke="none" font-family="sans-serif" font-size="40" font-style="normal" font-weight="normal" letter-spacing="0" transform="matrix(0.17290703,0,0,0.17290703,62.294742,71.22385)" word-spacing="0" xml:space="preserve" style="line-height:1.25"><flowRegion id="flowRegion937"><rect id="rect939" width="338" height="181" x="-374" y="-425.364"/></flowRegion><flowPara id="flowPara941"/></flowRoot><g id="text874-8" fill="#000" fill-opacity="1" stroke="none" stroke-width=".029" aria-label="listmonk" font-family="IBM Plex Sans" font-size="5.399" font-stretch="normal" font-style="normal" font-variant="normal" font-weight="500" letter-spacing="0" text-anchor="start" word-spacing="0" writing-mode="lr-tb" style="line-height:1.25;-inkscape-font-specification:'IBM Plex Sans, Medium';font-variant-ligatures:normal;font-variant-caps:normal;font-variant-numeric:normal;font-feature-settings:normal;text-align:start"><path id="path862" stroke-width=".029" d="m 19.447322,26.965425 h 0.647862 v -4.08153 h -0.647862 z" font-family="Avenir LT Std" font-size="5.399" font-stretch="normal" font-style="normal" font-variant="normal" font-weight="bold" text-anchor="start" writing-mode="lr-tb" style="-inkscape-font-specification:'Avenir LT Std Bold';font-variant-ligatures:normal;font-variant-caps:normal;font-variant-numeric:normal;font-feature-settings:normal;text-align:start"/><path id="path864" stroke-width=".029" d="m 20.849758,26.965425 h 0.647862 v -2.591447 h -0.647862 z m -0.09178,-3.47146 c 0,0.205156 0.172764,0.388717 0.410313,0.388717 0.237549,0 0.42111,-0.167364 0.42111,-0.388717 0,-0.221353 -0.183561,-0.388717 -0.42111,-0.388717 -0.237549,0 -0.410313,0.183561 -0.410313,0.388717 z" font-family="Avenir LT Std" font-size="5.399" font-stretch="normal" font-style="normal" font-variant="normal" font-weight="bold" text-anchor="start" writing-mode="lr-tb" style="-inkscape-font-specification:'Avenir LT Std Bold';font-variant-ligatures:normal;font-variant-caps:normal;font-variant-numeric:normal;font-feature-settings:normal;text-align:start"/><path id="path866" stroke-width=".029" d="m 24.055409,24.703307 c -0.210555,-0.286139 -0.577677,-0.394116 -0.923203,-0.394116 -0.523688,0 -1.041978,0.259145 -1.041978,0.836822 0,0.98799 1.398302,0.566879 1.398302,1.101365 0,0.205157 -0.242948,0.296937 -0.431908,0.296937 -0.275341,0 -0.448104,-0.134971 -0.615469,-0.318532 l -0.431908,0.404914 c 0.264544,0.296937 0.61007,0.399515 1.009585,0.399515 0.529088,0 1.117562,-0.215954 1.117562,-0.831423 0,-1.009585 -1.398302,-0.631666 -1.398302,-1.095967 0,-0.194358 0.205156,-0.275341 0.37792,-0.275341 0.221352,0 0.383318,0.09178 0.507491,0.264544 z" font-family="Avenir LT Std" font-size="5.399" font-stretch="normal" font-style="normal" font-variant="normal" font-weight="bold" text-anchor="start" writing-mode="lr-tb" style="-inkscape-font-specification:'Avenir LT Std Bold';font-variant-ligatures:normal;font-variant-caps:normal;font-variant-numeric:normal;font-feature-settings:normal;text-align:start"/><path id="path868" stroke-width=".029" d="m 24.867177,24.92466 v 1.187747 c 0,0.61007 0.161966,0.917805 0.84762,0.917805 0.151167,0 0.377919,-0.0216 0.51289,-0.08638 v -0.545284 c -0.08098,0.05939 -0.237549,0.08098 -0.350925,0.08098 -0.286139,0 -0.361723,-0.161966 -0.361723,-0.42111 V 24.92466 h 0.712648 v -0.550682 h -0.712648 v -0.750441 h -0.647862 v 0.750441 h -0.534486 v 0.550682 z" font-family="Avenir LT Std" font-size="5.399" font-stretch="normal" font-style="normal" font-variant="normal" font-weight="bold" text-anchor="start" writing-mode="lr-tb" style="-inkscape-font-specification:'Avenir LT Std Bold';font-variant-ligatures:normal;font-variant-caps:normal;font-variant-numeric:normal;font-feature-settings:normal;text-align:start"/><path id="path870" stroke-width=".029" d="m 26.706413,26.965425 h 0.647862 v -1.414498 c 0,-0.345527 0.167365,-0.65866 0.593874,-0.65866 0.313133,0 0.442706,0.210555 0.442706,0.529087 v 1.544071 h 0.647862 v -1.4037 c 0,-0.334729 0.151167,-0.669458 0.556081,-0.669458 0.383318,0 0.480498,0.28074 0.480498,0.604671 v 1.468487 h 0.647862 v -1.544071 c 0,-0.620867 -0.242949,-1.112163 -0.934001,-1.112163 -0.388718,0 -0.664059,0.151168 -0.853019,0.480498 -0.134971,-0.323931 -0.410312,-0.480498 -0.809827,-0.480498 -0.431908,0 -0.680255,0.226752 -0.793631,0.4697 h -0.0108 v -0.404913 h -0.615469 z" font-family="Avenir LT Std" font-size="5.399" font-stretch="normal" font-style="normal" font-variant="normal" font-weight="bold" text-anchor="start" writing-mode="lr-tb" style="-inkscape-font-specification:'Avenir LT Std Bold';font-variant-ligatures:normal;font-variant-caps:normal;font-variant-numeric:normal;font-feature-settings:normal;text-align:start"/><path id="path872" stroke-width=".029" d="m 31.296195,25.669701 c 0,0.815227 0.626266,1.360511 1.409099,1.360511 0.782834,0 1.4091,-0.545284 1.4091,-1.360511 0,-0.815226 -0.626266,-1.36051 -1.4091,-1.36051 -0.782833,0 -1.409099,0.545284 -1.409099,1.36051 z m 0.647862,0 c 0,-0.404913 0.286139,-0.777434 0.761237,-0.777434 0.475099,0 0.761238,0.372521 0.761238,0.777434 0,0.404914 -0.286139,0.777435 -0.761238,0.777435 -0.475098,0 -0.761237,-0.372521 -0.761237,-0.777435 z" font-family="Avenir LT Std" font-size="5.399" font-stretch="normal" font-style="normal" font-variant="normal" font-weight="bold" text-anchor="start" writing-mode="lr-tb" style="-inkscape-font-specification:'Avenir LT Std Bold';font-variant-ligatures:normal;font-variant-caps:normal;font-variant-numeric:normal;font-feature-settings:normal;text-align:start"/><path id="path874" stroke-width=".029" d="m 34.715692,26.965425 h 0.647862 v -1.414498 c 0,-0.345527 0.167364,-0.65866 0.593873,-0.65866 0.453504,0 0.475099,0.475099 0.475099,0.761238 v 1.31192 h 0.647862 v -1.635851 c 0,-0.529087 -0.248347,-1.020383 -0.944799,-1.020383 -0.431908,0 -0.674856,0.221353 -0.793631,0.480498 h -0.0108 v -0.415711 h -0.615469 z" font-family="Avenir LT Std" font-size="5.399" font-stretch="normal" font-style="normal" font-variant="normal" font-weight="bold" text-anchor="start" writing-mode="lr-tb" style="-inkscape-font-specification:'Avenir LT Std Bold';font-variant-ligatures:normal;font-variant-caps:normal;font-variant-numeric:normal;font-feature-settings:normal;text-align:start"/><path id="path876" stroke-width=".029" d="m 37.815812,26.965425 h 0.647862 v -1.322718 h 0.0108 l 1.03118,1.322718 h 0.858417 l -1.182348,-1.414498 1.112163,-1.176949 h -0.831423 l -0.998787,1.074371 v -2.564454 h -0.647862 z" font-family="Avenir LT Std" font-size="5.399" font-stretch="normal" font-style="normal" font-variant="normal" font-weight="bold" text-anchor="start" writing-mode="lr-tb" style="-inkscape-font-specification:'Avenir LT Std Bold';font-variant-ligatures:normal;font-variant-caps:normal;font-variant-numeric:normal;font-feature-settings:normal;text-align:start"/></g><circle id="circle876-1" cx="15.06" cy="25.325" r="1.976" fill="none" fill-opacity="1" stroke="#7f2aff" stroke-dasharray="none" stroke-miterlimit="4" stroke-opacity="1" stroke-width=".69"/><path id="path878-0" fill="#7f2aff" fill-opacity="1" stroke="none" stroke-dasharray="none" stroke-miterlimit="4" stroke-opacity="1" stroke-width=".757" d="m 15.059694,23.567708 a 1.9761227,2.3790511 0 0 0 -1.976047,2.378949 1.9761227,2.3790511 0 0 0 0.04555,0.494867 1.9761227,2.3790511 0 0 1 1.930494,-1.87695 1.9761227,2.3790511 0 0 1 1.930493,1.884093 1.9761227,2.3790511 0 0 0 0.04555,-0.50201 1.9761227,2.3790511 0 0 0 -1.976047,-2.378949 z"/></g></svg>